<svg id="Aposta_Certa_Tipografias" data-name="Aposta Certa Tipografias" xmlns="http://www.w3.org/2000/svg" xmlns:xlink="http://www.w3.org/1999/xlink" width="1075" height="390" viewBox="0 0 1075 390">
  <defs>
    <style>
      .cls-1 {
        fill: #3c3c3c;
      }

      .cls-1, .cls-2, .cls-3 {
        fill-rule: evenodd;
      }

      .cls-2 {
        fill: url(#linear-gradient);
      }

      .cls-3 {
        fill: url(#linear-gradient-2);
      }
    </style>
    <linearGradient id="linear-gradient" x1="284.402" y1="301" x2="330.598" y2="271" gradientUnits="userSpaceOnUse">
      <stop offset="0" stop-color="#ffcc41"/>
      <stop offset="1" stop-color="#ffcd41"/>
    </linearGradient>
    <linearGradient id="linear-gradient-2" x1="881.094" y1="132.507" x2="971.094" y2="67.118" gradientUnits="userSpaceOnUse">
      <stop offset="0" stop-color="#ffcd41"/>
      <stop offset="1" stop-color="#fbc223"/>
    </linearGradient>
  </defs>
  <path id="aposta" class="cls-1" d="M155.484,144.314a47.58,47.58,0,0,0,9.334,15.12,43.133,43.133,0,0,0,13.813,9.987,39.778,39.778,0,0,0,33.041.094,34.689,34.689,0,0,0,13.161-10.081l1.306,11.761H247.98v-92.4h-14l-6.347,11.387a40.646,40.646,0,0,0-14-9.427,42.35,42.35,0,0,0-16.053-3.267,43.435,43.435,0,0,0-18.014,3.733A45.786,45.786,0,0,0,165.1,91.392a46.453,46.453,0,0,0-9.614,15.121,50.251,50.251,0,0,0-3.454,18.76A51.486,51.486,0,0,0,155.484,144.314Zm23.987-28.561a23.4,23.4,0,0,1,4.574-7.654,22.075,22.075,0,0,1,24.921-5.04,22.39,22.39,0,0,1,7.093,5.04,23.3,23.3,0,0,1,4.667,7.374,24.156,24.156,0,0,1,1.68,9.054q0,10.829-6.253,17.733a20.786,20.786,0,0,1-16.148,6.907,21.376,21.376,0,0,1-8.96-1.866,22.221,22.221,0,0,1-7.094-5.041,21.532,21.532,0,0,1-4.573-7.56,27.47,27.47,0,0,1-1.587-9.427A26.89,26.89,0,0,1,179.471,115.753Zm161.285,18.574a24.124,24.124,0,0,1-4.293,7.747,19.51,19.51,0,0,1-15.307,7.093,21.773,21.773,0,0,1-8.494-1.68,19.291,19.291,0,0,1-6.907-4.853,24.918,24.918,0,0,1-4.666-7.56,25.873,25.873,0,0,1-1.774-9.8q0-10.639,6.067-17.36t15.96-6.72a19.588,19.588,0,0,1,8.681,1.866,20.091,20.091,0,0,1,6.533,5.04,23.124,23.124,0,0,1,4.2,7.467,28.26,28.26,0,0,1,1.494,9.334A29.073,29.073,0,0,1,340.756,134.327Zm24.361-28a47.329,47.329,0,0,0-9.053-15.12,41.031,41.031,0,0,0-31.175-13.72A37.48,37.48,0,0,0,307.9,81.219a35.935,35.935,0,0,0-12.694,10.64l-7.467-13.067h-14V216.743h26.134v-53.2a32.064,32.064,0,0,0,10.64,6.907,34.5,34.5,0,0,0,13.254,2.613,43.3,43.3,0,0,0,18.481-3.826,42.326,42.326,0,0,0,14-10.361,47.123,47.123,0,0,0,8.961-15.213,53.708,53.708,0,0,0,3.173-18.574A52.875,52.875,0,0,0,365.117,106.326Zm23.148,37.615a46.193,46.193,0,0,0,9.613,15.213,44.687,44.687,0,0,0,14.841,10.174,51.864,51.864,0,0,0,38.641,0,44.672,44.672,0,0,0,14.84-10.174,46.244,46.244,0,0,0,9.614-15.213,52.172,52.172,0,0,0,0-37.335A46.284,46.284,0,0,0,466.2,91.392a44.722,44.722,0,0,0-14.84-10.174,48.431,48.431,0,0,0-19.321-3.733,49.109,49.109,0,0,0-19.414,3.733,44.472,44.472,0,0,0-14.933,10.174,45.045,45.045,0,0,0-9.521,15.214,51.755,51.755,0,0,0-3.36,18.667A50.443,50.443,0,0,0,388.265,143.941Zm23.52-28.095a22.586,22.586,0,0,1,4.574-7.653,22.267,22.267,0,0,1,6.907-5.134,20.178,20.178,0,0,1,8.773-1.866,20.811,20.811,0,0,1,8.867,1.866,19.971,19.971,0,0,1,6.814,5.134,24.42,24.42,0,0,1,4.387,7.653,28.809,28.809,0,0,1,0,18.854,23.21,23.21,0,0,1-4.387,7.56,20.446,20.446,0,0,1-6.814,5.041,20.767,20.767,0,0,1-8.867,1.866,20.135,20.135,0,0,1-8.773-1.866,22.869,22.869,0,0,1-6.907-5.041,21.534,21.534,0,0,1-4.574-7.56A28.809,28.809,0,0,1,411.785,115.846Zm152.6-28.467a52,52,0,0,0-15.12-7.467,58.468,58.468,0,0,0-16.987-2.427,45.938,45.938,0,0,0-14.934,2.24,32.357,32.357,0,0,0-10.921,6.067,26.409,26.409,0,0,0-6.72,8.867,25.441,25.441,0,0,0-2.333,10.827,22.524,22.524,0,0,0,7.84,17.827,32.337,32.337,0,0,0,7.84,5.04,52.553,52.553,0,0,0,8.587,3.08l10.827,3.361q4.663,1.119,6.814,3.453a7.44,7.44,0,0,1,2.146,5.134,8.9,8.9,0,0,1-2.706,6.346q-2.709,2.8-9.054,2.8a32.947,32.947,0,0,1-22.027-9.333l-12.694,16.8a46.539,46.539,0,0,0,16.521,9.8,60.89,60.89,0,0,0,20.067,3.266,47.193,47.193,0,0,0,15.68-2.426,35.619,35.619,0,0,0,11.574-6.441,27.036,27.036,0,0,0,7.094-9.333,26.493,26.493,0,0,0,2.426-11.107,25.361,25.361,0,0,0-6.533-17.547q-6.537-7.281-22.028-11.574l-8.213-2.053q-4.108-.933-5.88-2.894a6.365,6.365,0,0,1-1.774-4.387,7.067,7.067,0,0,1,2.614-5.6q2.611-2.24,7.653-2.24a29.245,29.245,0,0,1,9.8,1.68,31.617,31.617,0,0,1,8.68,4.667Zm15.681,13.44h14.934v39.2a40.445,40.445,0,0,0,1.96,12.694,28.576,28.576,0,0,0,5.786,10.267,27.173,27.173,0,0,0,9.614,6.814,33.921,33.921,0,0,0,13.627,2.52q4.293,0,8.96-.374t9.894-1.306l-0.933-21.841H631.032a9.521,9.521,0,0,1-7.28-2.987q-2.8-2.983-2.8-8.96V100.819H644.1V79.165H620.952V52.844l-21.281-.56-3.546,26.881H580.071v21.654Zm80.922,43.495a47.615,47.615,0,0,0,9.334,15.12,43.137,43.137,0,0,0,13.814,9.987,39.778,39.778,0,0,0,33.041.094,34.678,34.678,0,0,0,13.16-10.081l1.307,11.761H753.49v-92.4h-14l-6.347,11.387a40.652,40.652,0,0,0-14-9.427,42.355,42.355,0,0,0-16.054-3.267,43.438,43.438,0,0,0-18.014,3.733,45.8,45.8,0,0,0-14.467,10.174,46.47,46.47,0,0,0-9.614,15.121,50.251,50.251,0,0,0-3.453,18.76A51.486,51.486,0,0,0,660.993,144.314Zm23.988-28.561a23.4,23.4,0,0,1,4.573-7.654,22.075,22.075,0,0,1,24.921-5.04,22.394,22.394,0,0,1,7.094,5.04,23.3,23.3,0,0,1,4.666,7.374,24.156,24.156,0,0,1,1.68,9.054q0,10.829-6.253,17.733a20.785,20.785,0,0,1-16.147,6.907,21.378,21.378,0,0,1-8.961-1.866,22.217,22.217,0,0,1-7.093-5.041,21.534,21.534,0,0,1-4.574-7.56,27.493,27.493,0,0,1-1.586-9.427A26.89,26.89,0,0,1,684.981,115.753Z"/>
  <path id="certa" class="cls-1" d="M526.7,256.441a24.694,24.694,0,0,1,4.557-7.626,19.567,19.567,0,0,1,6.975-5.022,23.386,23.386,0,0,1,20,1.023,28.824,28.824,0,0,1,8.649,7.626l18.972-15.624a48.641,48.641,0,0,0-17.019-13.764,52.869,52.869,0,0,0-41.571-1.116,44.668,44.668,0,0,0-14.973,10.23,45.345,45.345,0,0,0-9.579,15.159,50.821,50.821,0,0,0-3.348,18.507,48.425,48.425,0,0,0,3.534,18.507A47.019,47.019,0,0,0,512.75,299.5a45.367,45.367,0,0,0,15.159,10.23,50.1,50.1,0,0,0,19.623,3.72,52.827,52.827,0,0,0,20.646-3.906,55.116,55.116,0,0,0,16.74-10.974l-17.67-16.926a30.434,30.434,0,0,1-8.742,5.952,26.056,26.056,0,0,1-10.6,2.046,23.4,23.4,0,0,1-9.207-1.767,21.145,21.145,0,0,1-7.254-5.022,22.92,22.92,0,0,1-4.743-7.626A27.19,27.19,0,0,1,526.7,256.441Zm123.69-16.833a18.037,18.037,0,0,1,6.045,4.092,20.213,20.213,0,0,1,4,6.045,20.9,20.9,0,0,1,1.674,7.347H622.49a22.853,22.853,0,0,1,6.138-13.485q5.2-5.484,13.95-5.487A19.961,19.961,0,0,1,650.39,239.608Zm-20.739,47.616A19.816,19.816,0,0,1,622.3,272.9h65.658q0.183-1.3.279-3.348t0.093-5.022a47.628,47.628,0,0,0-3.348-17.856,45.53,45.53,0,0,0-9.393-14.694,44.775,44.775,0,0,0-14.508-10.044,45.982,45.982,0,0,0-18.693-3.72,48.256,48.256,0,0,0-19.251,3.72,42.559,42.559,0,0,0-14.6,10.137,45.155,45.155,0,0,0-9.207,15.159,52.859,52.859,0,0,0-3.255,18.6,50.784,50.784,0,0,0,3.441,18.786,43.887,43.887,0,0,0,9.858,15.159,45.374,45.374,0,0,0,15.531,10.044,54.912,54.912,0,0,0,20.46,3.627,56.733,56.733,0,0,0,22.506-4.371,48.223,48.223,0,0,0,17.856-13.3l-17.856-13.02a26.786,26.786,0,0,1-9.951,7.44,30.275,30.275,0,0,1-12,2.418Q636.252,292.618,629.651,287.224ZM753,243c2.019,0.051,9.129-.341,11.5.514a22.734,22.734,0,0,1,3.8,1.833,28.313,28.313,0,0,1,2.8,1.887l11.9-20.088a42.317,42.317,0,0,0-11.718-6.6q-1.768-.649-3.564-1.117a37.333,37.333,0,0,0-9.456-1.208A42.269,42.269,0,0,0,749,219c0.163-.044-10,5.833-4,2-3.53,2.253-10.355,7.12-12.77,10.8l-7.068-12.276h-13.95v92.07h26.04V258.952a19.785,19.785,0,0,1,6.789-12.09,21.935,21.935,0,0,1,4.818-3.04A15.841,15.841,0,0,1,753,243Zm37.82-1.532H805.7v39.06a40.311,40.311,0,0,0,1.953,12.648,28.482,28.482,0,0,0,5.766,10.23A27.063,27.063,0,0,0,823,310.2a33.8,33.8,0,0,0,13.578,2.511q4.276,0,8.928-.372t9.858-1.3l-0.93-21.762H841.6a9.485,9.485,0,0,1-7.254-2.976q-2.79-2.973-2.79-8.928v-35.9h23.064V219.892H831.554V193.666l-21.2-.558-3.534,26.784h-16v21.576Zm156.007-16.859c0.809-1.281-3.487,6.257-3.487,6.257a40.507,40.507,0,0,0-13.95-9.393,42.2,42.2,0,0,0-16-3.255,43.281,43.281,0,0,0-17.949,3.72,45.633,45.633,0,0,0-14.415,10.137,46.293,46.293,0,0,0-9.579,15.066,50.066,50.066,0,0,0-3.441,18.693,51.294,51.294,0,0,0,3.441,18.972,47.432,47.432,0,0,0,9.3,15.066,43,43,0,0,0,13.764,9.951,39.63,39.63,0,0,0,32.922.093,34.555,34.555,0,0,0,13.113-10.044l1.3,11.718h5.062C946.936,311.59,946.815,224.629,946.827,224.609ZM964,219v93h-4V219h4Zm-11.869,92.59c0.986,0,1.958.014,2.945,0,0,0-.12-92.069-0.14-92.07-1.173-.013-2.074,0-2.918,0C952.007,219.52,952.118,311.59,952.131,311.59Zm-56.779-55.242a23.317,23.317,0,0,1,4.557-7.626A21.992,21.992,0,0,1,924.74,243.7a22.287,22.287,0,0,1,7.068,5.022,23.209,23.209,0,0,1,4.65,7.347,24.068,24.068,0,0,1,1.674,9.021q0,10.79-6.231,17.67a20.711,20.711,0,0,1-16.089,6.882,21.291,21.291,0,0,1-8.928-1.86,22.127,22.127,0,0,1-7.068-5.022,21.46,21.46,0,0,1-4.557-7.533,27.377,27.377,0,0,1-1.581-9.393A26.792,26.792,0,0,1,895.352,256.348Z"/>
  <path id="Ret창ngulo_1" data-name="Ret창ngulo 1" class="cls-1" d="M166.122,231c-5.074,0-8.607.023-12.183,0-0.084,0,.051,30,0.028,30-2.975,0,12.172,0,12.157,0S166.128,231,166.122,231Zm143.868,0h8m5.017,0h6.974m5.021,0h6.979m5.01,0h6m5.023,0h4.992M368,231h5m4.984,0h4.994m69.027,30c-0.978,0,3-.028,2.987,0,0,0.01-.011-30-0.029-30H452C452.07,231,452.047,261,452.008,261Zm10.979-30c-0.869,0-1.318,0-3,0-0.016,0,.019,30.033.033,30S463,261.02,463,261s0-30,0-30h0m4,0a3.994,3.994,0,0,1,4,4v22a4,4,0,0,1-4,4V231Zm-22.993,30c0.034,0,2.981.013,2.988,0s0.02-30-.015-30c-0.867.021-1.8-.013-2.973,0C444,231,444.036,261,444.007,261Zm-45.017,0h-2.964m-5.082,0h-2.922m-5.04,0h-4.973M373,261h-5.011m-5,0H358.03M353,261h-6m-5.018,0h-6.964M330,261h-6.989m-5,0h-7.989m-161.6,0A4.229,4.229,0,0,1,144,257V235a4.229,4.229,0,0,1,4.425-4v30Zm161.607-30h7.961M318,261h-8m7.972,0c-0.36.008-7.566-.007-7.938,0-0.014,0-.071-30.041-0.022-30s7.945,0,7.962,0C318.033,231,317.983,261,317.976,261Zm-7.944-30h7.961M318,261h-8m7.972,0c-0.36.008-7.566-.007-7.938,0-0.014,0-.071-30.041-0.022-30s7.945,0,7.962,0C318.033,231,317.983,261,317.976,261Zm0,0c-0.36.008-7.566-.007-7.938,0-0.014,0-.071-30.041-0.022-30s7.945,0,7.962,0C318.033,231,317.983,261,317.976,261Zm5.016-30h7m0.016,30H323.02m0.008-30h6.965M330,261h-7m6.975,0c-0.315.008-6.62-.007-6.946,0-0.012,0-.062-30.041-0.019-30s6.952,0,6.966,0C330.029,231,329.985,261,329.979,261Zm-6.951-30h6.965M330,261h-7m6.975,0c-0.315.008-6.62-.007-6.946,0-0.012,0-.062-30.041-0.019-30s6.952,0,6.966,0C330.029,231,329.985,261,329.979,261Zm0,0c-0.315.008-6.62-.007-6.946,0-0.012,0-.062-30.041-0.019-30s6.952,0,6.966,0C330.029,231,329.985,261,329.979,261Zm5.013-30h6.972m0.016,30h-6.96m0.008-30h6.934m0.009,30H335m6.944,0c-0.314.008-6.59-.007-6.915,0-0.012,0-.061-30.041-0.019-30s6.921,0,6.935,0C342,231,341.954,261,341.948,261Zm-6.92-30h6.934m0.009,30H335m6.944,0c-0.314.008-6.59-.007-6.915,0-0.012,0-.061-30.041-0.019-30s6.921,0,6.935,0C342,231,341.954,261,341.948,261Zm0,0c-0.314.008-6.59-.007-6.915,0-0.012,0-.061-30.041-0.019-30s6.921,0,6.935,0C342,231,341.954,261,341.948,261Zm5.045-30h5.976m0.013,30h-5.965m0.007-30h5.944m0.007,30H347m5.952,0c-0.268.008-5.648-.007-5.927,0-0.01,0-.052-30.041-0.016-30s5.932,0,5.945,0C353,231,352.961,261,352.955,261Zm-5.931-30h5.944m0.007,30H347m5.952,0c-0.268.008-5.648-.007-5.927,0-0.01,0-.052-30.041-0.016-30s5.932,0,5.945,0C353,231,352.961,261,352.955,261Zm0,0c-0.268.008-5.648-.007-5.927,0-0.01,0-.052-30.041-0.016-30s5.932,0,5.945,0C353,231,352.961,261,352.955,261Zm5.039-30h4.98m0.011,30h-4.971m0.006-30h4.953m0.006,30H358m4.96,0c-0.224.008-4.708-.007-4.94,0-0.008,0-.043-30.041-0.013-30s4.944,0,4.954,0C363,231,362.967,261,362.963,261Zm-4.943-30h4.953m0.006,30H358m4.96,0c-0.224.008-4.708-.007-4.94,0-0.008,0-.043-30.041-0.013-30s4.944,0,4.954,0C363,231,362.967,261,362.963,261Zm0,0c-0.224.008-4.708-.007-4.94,0-0.008,0-.043-30.041-0.013-30s4.944,0,4.954,0C363,231,362.967,261,362.963,261Zm5.031-30h4.98m0.011,30h-4.971m0.006-30h4.953m0.006,30H368m4.96,0c-0.224.008-4.708-.007-4.94,0-0.008,0-.043-30.041-0.013-30s4.943,0,4.954,0C373,231,372.967,261,372.963,261Zm-4.943-30h4.953m0.006,30H368m4.96,0c-0.224.008-4.708-.007-4.94,0-0.008,0-.043-30.041-0.013-30s4.943,0,4.954,0C373,231,372.967,261,372.963,261Zm0,0c-0.224.008-4.708-.007-4.94,0-0.008,0-.043-30.041-0.013-30s4.943,0,4.954,0C373,231,372.967,261,372.963,261Zm5.031-30h4.98m0.011,30h-4.971m0.006-30h4.953m0.006,30H378m4.96,0c-0.224.008-4.708-.007-4.94,0-0.008,0-.043-30.041-0.013-30s4.943,0,4.954,0C383,231,382.967,261,382.963,261Zm-4.943-30h4.953m0.006,30H378m4.96,0c-0.224.008-4.708-.007-4.94,0-0.008,0-.043-30.041-0.013-30s4.943,0,4.954,0C383,231,382.967,261,382.963,261Zm0,0c-0.224.008-4.708-.007-4.94,0-0.008,0-.043-30.041-0.013-30s4.943,0,4.954,0C383,231,382.967,261,382.963,261Zm8.028,0h-2.982m2.979,0H388m2.986,0H388m2.976,0c-0.135.008-2.825-.007-2.964,0,0,0-.053-30-0.008-30,0.856,0,2.966,0,2.972,0S390.98,261,390.978,261Zm8.013,0h-2.982m2.979,0H396m2.976,0c-0.135.008-2.825-.007-2.964,0,0,0-.053-30-0.008-30,0.638,0.015,2.966,0,2.972,0S398.98,261,398.978,261Zm0.01,0H396m10.989,0h-2.965m2.965,0h-2.982m2.979,0H404m2.976,0c-0.135.008-2.825-.007-2.964,0,0,0-.053-30-0.008-30,0.638,0.015,2.966,0,2.972,0S406.98,261,406.978,261Zm0.01,0H404m10.989,0h-2.965m2.965,0h-2.982m2.979,0H412m2.976,0c-0.135.008-2.825-.007-2.964,0,0,0-.053-30-0.008-30,0.638,0.015,2.966,0,2.972,0S414.98,261,414.978,261Zm0.01,0H412m11.989,0h-2.965m2.965,0h-2.982m2.979,0H421m2.976,0c-0.135.008-2.825-.007-2.964,0,0,0-.053-30-0.008-30,0.638,0.015,2.966,0,2.972,0S423.98,261,423.978,261Zm0.01,0H421m10.989,0h-2.965m2.965,0h-2.982m2.979,0H429m2.976,0c-0.135.008-2.825-.007-2.964,0,0,0-.053-30-0.008-30,0.638,0.015,2.966,0,2.972,0S431.98,261,431.978,261Zm0.01,0H429m9.989,0h-2.965m2.965,0h-2.982m2.979,0H436m2.976,0c-0.135.008-2.825-.007-2.964,0,0,0-.053-30-0.008-30,0.638,0.015,2.966,0,2.972,0S438.98,261,438.978,261Zm0.01,0H436M186,231c-5.669,0-9.617.023-13.611,0-0.094,0,.057,30,0.031,30-3.324,0,13.6,0,13.582,0S186,231,186,231Zm20,0c-6.074,0-10.3.023-14.583,0-0.1,0,.061,30,0.034,30-3.561,0,14.569,0,14.552,0S206,231,206,231Zm21,0c-6.061,0-10.281.023-14.553,0-0.1,0,.062,30,0.035,30-3.554,0,14.538,0,14.521,0S227,231,227,231Zm21,0c-6.061,0-10.281.023-14.553,0-0.1,0,.062,30,0.035,30-3.554,0,14.538,0,14.521,0S248,231,248,231Zm17,0c-4.849,0-8.225.023-11.642,0-0.081,0,.049,30,0.027,30-2.843,0,11.631,0,11.617,0S265,231,265,231Zm14,0c-4.041,0-6.855.023-9.7,0-0.067,0,.04,30,0.022,30-2.369,0,9.693,0,9.682,0S279,231,279,231Zm13,0c-3.233,0-5.484.023-7.761,0-0.054,0,.032,30,0.018,30-1.9,0,7.754,0,7.745,0S292,231,292,231Zm13,0c-3.233,0-5.484.023-7.761,0-0.054,0,.032,30,0.018,30-1.9,0,7.754,0,7.745,0S305,231,305,231Z"/>
  <path id="Ret창ngulo_1-2" data-name="Ret창ngulo 1" class="cls-2" d="M166.122,271c-5.074,0-8.607.023-12.183,0-0.084,0,.051,30,0.028,30-2.975,0,12.172,0,12.157,0S166.128,271,166.122,271Zm143.868,0h8m5.017,0h6.974m5.021,0h6.979m5.01,0h6m5.023,0h4.992M368,271h5m4.984,0h4.994m69.027,30c-0.978,0,3-.028,2.987,0,0,0.01-.011-30-0.029-30H452C452.07,271,452.047,301,452.008,301Zm10.979-30c-0.869,0-1.318,0-3,0-0.016,0,.019,30.033.033,30S463,301.02,463,301s0-30,0-30h0m4,0a3.994,3.994,0,0,1,4,4v22a4,4,0,0,1-4,4V271Zm-22.993,30c0.034,0,2.981.013,2.988,0s0.02-30-.015-30c-0.867.021-1.8-.013-2.973,0C444,271,444.036,301,444.007,301Zm-45.017,0h-2.964m-5.082,0h-2.922m-5.04,0h-4.973M373,301h-5.011m-5,0H358.03M353,301h-6m-5.018,0h-6.964M330,301h-6.989m-5,0h-7.989m-161.6,0A4.229,4.229,0,0,1,144,297V275a4.229,4.229,0,0,1,4.425-4v30Zm161.607-30h7.961M318,301h-8m7.972,0c-0.36.008-7.566-.007-7.938,0-0.014,0-.071-30.041-0.022-30s7.945,0,7.962,0C318.033,271,317.983,301,317.976,301Zm-7.944-30h7.961M318,301h-8m7.972,0c-0.36.008-7.566-.007-7.938,0-0.014,0-.071-30.041-0.022-30s7.945,0,7.962,0C318.033,271,317.983,301,317.976,301Zm0,0c-0.36.008-7.566-.007-7.938,0-0.014,0-.071-30.041-0.022-30s7.945,0,7.962,0C318.033,271,317.983,301,317.976,301Zm5.016-30h7m0.016,30H323.02m0.008-30h6.965M330,301h-7m6.975,0c-0.315.008-6.62-.007-6.946,0-0.012,0-.062-30.041-0.019-30s6.952,0,6.966,0C330.029,271,329.985,301,329.979,301Zm-6.951-30h6.965M330,301h-7m6.975,0c-0.315.008-6.62-.007-6.946,0-0.012,0-.062-30.041-0.019-30s6.952,0,6.966,0C330.029,271,329.985,301,329.979,301Zm0,0c-0.315.008-6.62-.007-6.946,0-0.012,0-.062-30.041-0.019-30s6.952,0,6.966,0C330.029,271,329.985,301,329.979,301Zm5.013-30h6.972m0.016,30h-6.96m0.008-30h6.934m0.009,30H335m6.944,0c-0.314.008-6.59-.007-6.915,0-0.012,0-.061-30.041-0.019-30s6.921,0,6.935,0C342,271,341.954,301,341.948,301Zm-6.92-30h6.934m0.009,30H335m6.944,0c-0.314.008-6.59-.007-6.915,0-0.012,0-.061-30.041-0.019-30s6.921,0,6.935,0C342,271,341.954,301,341.948,301Zm0,0c-0.314.008-6.59-.007-6.915,0-0.012,0-.061-30.041-0.019-30s6.921,0,6.935,0C342,271,341.954,301,341.948,301Zm5.045-30h5.976m0.013,30h-5.965m0.007-30h5.944m0.007,30H347m5.952,0c-0.268.008-5.648-.007-5.927,0-0.01,0-.052-30.041-0.016-30s5.932,0,5.945,0C353,271,352.961,301,352.955,301Zm-5.931-30h5.944m0.007,30H347m5.952,0c-0.268.008-5.648-.007-5.927,0-0.01,0-.052-30.041-0.016-30s5.932,0,5.945,0C353,271,352.961,301,352.955,301Zm0,0c-0.268.008-5.648-.007-5.927,0-0.01,0-.052-30.041-0.016-30s5.932,0,5.945,0C353,271,352.961,301,352.955,301Zm5.039-30h4.98m0.011,30h-4.971m0.006-30h4.953m0.006,30H358m4.96,0c-0.224.008-4.708-.007-4.94,0-0.008,0-.043-30.041-0.013-30s4.944,0,4.954,0C363,271,362.967,301,362.963,301Zm-4.943-30h4.953m0.006,30H358m4.96,0c-0.224.008-4.708-.007-4.94,0-0.008,0-.043-30.041-0.013-30s4.944,0,4.954,0C363,271,362.967,301,362.963,301Zm0,0c-0.224.008-4.708-.007-4.94,0-0.008,0-.043-30.041-0.013-30s4.944,0,4.954,0C363,271,362.967,301,362.963,301Zm5.031-30h4.98m0.011,30h-4.971m0.006-30h4.953m0.006,30H368m4.96,0c-0.224.008-4.708-.007-4.94,0-0.008,0-.043-30.041-0.013-30s4.943,0,4.954,0C373,271,372.967,301,372.963,301Zm-4.943-30h4.953m0.006,30H368m4.96,0c-0.224.008-4.708-.007-4.94,0-0.008,0-.043-30.041-0.013-30s4.943,0,4.954,0C373,271,372.967,301,372.963,301Zm0,0c-0.224.008-4.708-.007-4.94,0-0.008,0-.043-30.041-0.013-30s4.943,0,4.954,0C373,271,372.967,301,372.963,301Zm5.031-30h4.98m0.011,30h-4.971m0.006-30h4.953m0.006,30H378m4.96,0c-0.224.008-4.708-.007-4.94,0-0.008,0-.043-30.041-0.013-30s4.943,0,4.954,0C383,271,382.967,301,382.963,301Zm-4.943-30h4.953m0.006,30H378m4.96,0c-0.224.008-4.708-.007-4.94,0-0.008,0-.043-30.041-0.013-30s4.943,0,4.954,0C383,271,382.967,301,382.963,301Zm0,0c-0.224.008-4.708-.007-4.94,0-0.008,0-.043-30.041-0.013-30s4.943,0,4.954,0C383,271,382.967,301,382.963,301Zm8.028,0h-2.982m2.979,0H388m2.986,0H388m2.976,0c-0.135.008-2.825-.007-2.964,0,0,0-.053-30-0.008-30h2.972C391,271,390.98,301,390.978,301Zm8.013,0h-2.982m2.979,0H396m2.976,0c-0.135.008-2.825-.007-2.964,0,0,0-.053-30-0.008-30,0.638,0.015,2.966,0,2.972,0S398.98,301,398.978,301Zm0.01,0H396m10.989,0h-2.965m2.965,0h-2.982m2.979,0H404m2.976,0c-0.135.008-2.825-.007-2.964,0,0,0-.053-30-0.008-30,0.638,0.015,2.966,0,2.972,0S406.98,301,406.978,301Zm0.01,0H404m10.989,0h-2.965m2.965,0h-2.982m2.979,0H412m2.976,0c-0.135.008-2.825-.007-2.964,0,0,0-.053-30-0.008-30,0.638,0.015,2.966,0,2.972,0S414.98,301,414.978,301Zm0.01,0H412m11.989,0h-2.965m2.965,0h-2.982m2.979,0H421m2.976,0c-0.135.008-2.825-.007-2.964,0,0,0-.053-30-0.008-30,0.638,0.015,2.966,0,2.972,0S423.98,301,423.978,301Zm0.01,0H421m10.989,0h-2.965m2.965,0h-2.982m2.979,0H429m2.976,0c-0.135.008-2.825-.007-2.964,0,0,0-.053-30-0.008-30,0.638,0.015,2.966,0,2.972,0S431.98,301,431.978,301Zm0.01,0H429m9.989,0h-2.965m2.965,0h-2.982m2.979,0H436m2.976,0c-0.135.008-2.825-.007-2.964,0,0,0-.053-30-0.008-30,0.638,0.015,2.966,0,2.972,0S438.98,301,438.978,301Zm0.01,0H436M186,271c-5.669,0-9.617.023-13.611,0-0.094,0,.057,30,0.031,30-3.324,0,13.6,0,13.582,0S186,271,186,271Zm20,0c-6.074,0-10.3.023-14.583,0-0.1,0,.061,30,0.034,30-3.561,0,14.569,0,14.552,0S206,271,206,271Zm21,0c-6.061,0-10.281.023-14.553,0-0.1,0,.062,30,0.035,30-3.554,0,14.538,0,14.521,0S227,271,227,271Zm21,0c-6.061,0-10.281.023-14.553,0-0.1,0,.062,30,0.035,30-3.554,0,14.538,0,14.521,0S248,271,248,271Zm17,0c-4.849,0-8.225.023-11.642,0-0.081,0,.049,30,0.027,30-2.843,0,11.631,0,11.617,0S265,271,265,271Zm14,0c-4.041,0-6.855.023-9.7,0-0.067,0,.04,30,0.022,30-2.369,0,9.693,0,9.682,0S279,271,279,271Zm13,0c-3.233,0-5.484.023-7.761,0-0.054,0,.032,30,0.018,30-1.9,0,7.754,0,7.745,0S292,271,292,271Zm13,0c-3.233,0-5.484.023-7.761,0-0.054,0,.032,30,0.018,30-1.9,0,7.754,0,7.745,0S305,271,305,271Z"/>
  <path id="Forma_1" data-name="Forma 1" class="cls-3" d="M899.024,111.757c-5.657,3.456-17.936,10.89-17.936,10.89v32.238s10.4-6.3,17.879-10.941C899.156,143.827,899.04,111.748,899.024,111.757Zm20.927-43.238c0.988,0.585,1.946,1.193,3.034,1.857,0.039,0.024.086,58.818,0.067,58.831-1.058.691-1.762,1.087-2.758,1.687C920.186,130.959,919.913,68.5,919.951,68.519ZM944.145,116.3c1.224-.764,1.674-1.023,2.9-1.773,0.015-.009-0.055-29.461-0.063-29.466-1.449-.893-1.509-0.947-2.97-1.818C944,83.235,944.137,116.3,944.145,116.3Zm7.895-4.831c1.185-.712,1.985-1.221,2.972-1.819,0.031-.018.013-19.666-0.033-19.694-1.041-.629-1.769-1.063-2.985-1.827C951.973,88.114,952.009,111.486,952.04,111.467Zm16.014-9.8c1.549-.953,3.033-1.856,3.033-1.856s-1.359-.873-3.085-1.888C968,97.92,968.046,101.672,968.054,101.667ZM960,106.583c0.859-.532,1.986-1.207,3.048-1.849,0.018-.011-0.032-9.865-0.04-9.87-0.787-.487-1.773-1.1-3.025-1.851C959.948,93,959.942,106.615,960,106.583Zm-20.91,12.811c-1.248.759-1.65,1.017-3.037,1.859-0.007,0-.061-42.922-0.033-42.9,1.359,0.859,1.78,1.118,2.98,1.824C939.013,80.184,939.09,119.392,939.085,119.394Zm-8.035,4.918c-1.059.676-1.9,1.217-3.027,1.852-0.053.029-.11-52.775-0.015-52.715,1.393,0.885,2.047,1.222,2.963,1.813C930.987,75.272,931.063,124.3,931.05,124.312Zm-16,9.791c0.044-.04-1.852,1.13-2.94,1.8-0.007.005-.169-31.987-0.157-31.994,1.1-.671,2.048-1.2,3.127-1.9C915.159,101.958,915.02,134.13,915.049,134.1Zm-8.007,4.9c-0.822.51-1.766,1.1-3.019,1.848-0.042.025-.1-32.067-0.029-32.112,1.365-.827,1.753-1.065,2.988-1.814C906.993,106.919,907.05,139,907.042,139Zm7.974-41.428c-1.313-.78-1.6-0.961-2.99-1.816-0.017-.01-0.033-32.11-0.025-32.105,1.161,0.709,1.785,1.082,2.964,1.814C914.983,65.479,915.041,97.589,915.016,97.575ZM904,91s0.055-32.208.075-32.2c1.355,0.814,1.767,1.066,2.958,1.811,0.012,0.008-.111,32.046-0.125,32.038l-2.846-1.728m-5.016-3.045-17.958-10.9V44.737s17.891,11.006,17.9,10.953C898.992,55.666,899.051,87.882,899.046,87.879Z"/>
  <path id="Forma_1_copiar" data-name="Forma 1 copiar" class="cls-1" d="M881.088,91.408l-90,55.074,90,55.074V169.318l-37.611-22.836,37.611-22.835V91.408Z"/>
</svg>
